<svg xmlns="http://www.w3.org/2000/svg" width="1950" height="280" viewBox="0 0 1950 280">
  <defs>
    <linearGradient id="g1" x1="0" y1="0" x2="1" y2="0">
      <stop offset="0%" stop-color="#183766"/>
      <stop offset="100%" stop-color="#e34bd8"/>
    </linearGradient>
    <linearGradient id="g2" x1="0" y1="0" x2="1" y2="0">
      <stop offset="0%" stop-color="#173765"/>
      <stop offset="100%" stop-color="#e34bd8"/>
    </linearGradient>
    <filter id="soft" x="-4%" y="-20%" width="108%" height="150%">
      <feDropShadow dx="0" dy="8" stdDeviation="10" flood-color="#000" flood-opacity="0.08"/>
    </filter>
  </defs>
  <rect width="1950" height="280" fill="#ffffff"/>
  <g filter="url(#soft)">
    <rect x="12" y="36" width="358" height="228" fill="url(#g1)"/>
    <rect x="0" y="210" width="28" height="20" fill="#44368e"/>
    <rect x="16" y="230" width="12" height="34" fill="#44368e"/>
    <text x="191" y="122" text-anchor="middle" font-family="Arial, Helvetica, sans-serif" font-size="58" fill="#fff">▱</text>
    <text x="191" y="214" text-anchor="middle" font-family="Arial, Helvetica, sans-serif" font-size="34" font-weight="700" fill="#fff">Academic Track</text>

    <rect x="390" y="36" width="1532" height="114" fill="url(#g2)"/>
    <rect x="390" y="150" width="1532" height="114" fill="#f7f7f8"/>
    <rect x="1910" y="52" width="18" height="212" fill="#e34bd8"/>
    <rect x="1920" y="70" width="10" height="194" fill="#e34bd8"/>
    <line x1="904" y1="36" x2="904" y2="264" stroke="#9fa3aa" stroke-width="2"/>
    <line x1="1420" y1="36" x2="1420" y2="264" stroke="#9fa3aa" stroke-width="2"/>

    <text x="647" y="104" text-anchor="middle" font-family="Arial, Helvetica, sans-serif" font-size="34" font-weight="700" fill="#fff">Rank</text>
    <text x="1162" y="104" text-anchor="middle" font-family="Arial, Helvetica, sans-serif" font-size="34" font-weight="700" fill="#fff">Best Score</text>
    <text x="1671" y="104" text-anchor="middle" font-family="Arial, Helvetica, sans-serif" font-size="34" font-weight="700" fill="#fff">Best Score Submission Time</text>

    <text x="647" y="198" text-anchor="middle" font-family="Arial, Helvetica, sans-serif" font-size="34" fill="#000">360</text>
    <text x="1162" y="198" text-anchor="middle" font-family="Arial, Helvetica, sans-serif" font-size="34" fill="#000">0.827503</text>
    <text x="1671" y="198" text-anchor="middle" font-family="Arial, Helvetica, sans-serif" font-size="34" fill="#000">2026-05-18 12:04:56</text>
  </g>
</svg>
